<svg xmlns="http://www.w3.org/2000/svg" width="1024" height="1024" viewBox="0 0 1024 1024" role="img" aria-label="无限进步 莫比乌斯带 单色版">
  
  <path fill="#1d1d1f" d="M513.313 466C526.778 455.319 540.325 444.742 553.952 434.27C560.396 429.327 569.749 421.716 576.232 417.504C605.39 398.56 637.438 389.647 672.238 393.891C703.301 397.583 731.636 413.43 751.044 437.963C761.43 451.351 769.537 468.172 774.2 484.403C774.804 487.249 775.939 491.928 776.084 494.676C777.94 504.03 778.416 524.719 775.19 533.573C770.356 562.75 751.574 591.013 727.544 608.155C699.442 627.995 664.614 635.87 630.709 630.05C576.183 620.729 553.29 585.806 511.455 558.086C495.642 569.941 480.395 583.656 464.413 595.531C456.75 601.225 448.66 608.434 440.182 612.841C433.061 616.937 420.924 622.944 413.088 624.902C410.945 625.674 407.968 626.596 405.777 627.148C370.733 635.983 339.526 633.19 308.197 615.389C280.555 599.342 260.345 573.054 251.942 542.216C244.23 513.068 248.373 482.053 263.464 455.951C280.615 426.113 306.265 405.23 339.66 396.371C368.719 388.663 410.534 393.634 436.437 408.746C443.863 412.412 450.103 417.462 456.827 422.145C475.529 435.172 494.15 454.266 513.313 466ZM345.658 587.599C375.701 575.937 391.575 562.548 416.269 542.977C429.442 532.725 442.394 522.193 455.117 511.388C444.663 502.559 433.408 493.983 422.764 485.39C397.201 464.752 380.655 450.801 349.388 439.8C309.483 480.403 307.407 545.139 345.658 587.599ZM679.402 584.494C679.707 583.674 679.548 583.9 680.106 583.219C696.427 563.292 706.672 536.181 707.081 510.316C707.395 484.414 697.428 459.444 679.365 440.877C676.108 439.662 661.872 445.683 658.626 447.132C633.212 458.471 613.216 477.409 591.547 494.471C587.948 497.305 571.988 509.268 569.957 511.383C579.502 519.657 591.354 528.152 601.269 535.963C622.329 552.554 641.983 571.163 667.105 581.451C669.731 582.527 675.406 585.033 678.234 585.136L679.402 584.494Z"></path>
</svg>